<?xml version="1.0" encoding="UTF-8"?>
<svg id="Layer_2" data-name="Layer 2" xmlns="http://www.w3.org/2000/svg" viewBox="0 0 409.96 69.94">
  <defs>
    <style>
      .cls-1 {
        fill: #e3a620;
      }

      .cls-1, .cls-2 {
        stroke-width: 0px;
      }

      .cls-2 {
        fill: #fff;
      }
    </style>
  </defs>
  <g id="Layer_1-2" data-name="Layer 1">
    <g>
      <g>
        <path class="cls-1" d="M101.81,69.69h-.15c-7.78-.76-11.09-4.37-12.49-7.27-2.74-5.65-.29-12.75,1.24-15.12l14.84-23.19V6.22h-5.06V.25h27.58v5.97h-5.33v13.89l9.87-.06-5.83,13.8c2.37.59,4.44,1.68,6.14,3.23,2.49,2.29,3.94,5.47,3.97,8.74.03,3.57-1.54,6.86-4.42,9.28-3.04,2.55-7.39,3.95-12.58,4.04-.21,0-11.03,0-11.03,0l2.66-5.97s8.04,0,8.28,0c3.79-.07,6.84-.98,8.82-2.64,1.49-1.25,2.3-2.9,2.29-4.66-.03-3.26-2.93-6.56-8.42-6.56h-4.5l5.6-13.24-6.82.04V6.22h-5.25v19.64l-15.79,24.67c-.65,1.01-2.53,5.89-.89,9.29,1.06,2.19,3.6,3.5,7.56,3.9h18.67c7.55-.27,13.05-2.68,16.8-7.38l2.13-3.2,5.69,4.34-1.87,2.34c-5.31,6.64-11.12,9.59-19.44,9.87h-.06s-22.23,0-22.23,0Z"/>
        <path class="cls-1" d="M127.52.5v5.47h-5.33v14.39l9.74-.06-5.8,13.72c2.44.56,4.58,1.65,6.31,3.24,2.44,2.24,3.86,5.36,3.89,8.56.03,3.49-1.51,6.72-4.33,9.09-3,2.52-7.29,3.89-12.42,3.98-.21,0-9.48,0-9.57,0h-1.06l2.43-5.47c2.56,0,7.8,0,8.12,0,3.85-.07,6.96-1,8.98-2.7,1.55-1.3,2.39-3.02,2.38-4.85-.03-3.38-3.02-6.81-8.67-6.81h-4.13l5.6-13.24-6.94.04V5.97h-5.75v19.81l-15.75,24.61c-.67,1.04-2.59,6.04-.9,9.53,1.1,2.27,3.71,3.63,7.76,4.04h18.69c6.62-.23,12.74-2.14,17-7.47l2-3,5.27,4.02-1.71,2.14c-5.26,6.57-11.02,9.5-19.25,9.78h-.05s-22.23,0-22.23,0h-.13c-7.67-.74-10.92-4.28-12.29-7.13-2.69-5.56-.28-12.54,1.23-14.88l14.88-23.25V5.97h-5.06V.5h27.08M128.02,0h-28.08v6.47h5.06v17.57l-14.8,23.13c-1.56,2.41-4.04,9.62-1.26,15.37,1.43,2.96,4.79,6.64,12.69,7.39h.13s22.28.01,22.28.01h.06c8.39-.29,14.26-3.27,19.62-9.97l1.71-2.14.32-.4-.41-.31-5.27-4.02-.42-.32-.3.44-2,3c-3.68,4.6-9.12,6.98-16.6,7.25h-18.65c-3.85-.39-6.32-1.66-7.34-3.76-1.57-3.25.26-8.1.87-9.04l15.75-24.61.08-.12V6.47h4.75v19.9h.5s6.18-.04,6.18-.04l-5.3,12.55-.29.69h4.88c5.33,0,8.15,3.17,8.17,6.31.01,1.68-.77,3.26-2.2,4.46-1.93,1.62-4.93,2.52-8.67,2.59-.32,0-5.56,0-8.11,0h-.32s-.13.3-.13.3l-2.43,5.47-.31.7h1.83c.09,0,9.37,0,9.58,0,5.24-.09,9.64-1.51,12.73-4.1,2.94-2.47,4.54-5.83,4.51-9.47-.03-3.34-1.51-6.6-4.05-8.93-1.66-1.52-3.66-2.6-5.96-3.22l5.57-13.18.3-.7h-.76s-9.24.06-9.24.06V6.47h5.33V0h0Z"/>
      </g>
      <g>
        <path class="cls-2" d="M0,11.91h7.73l1.63,9.12,1.58,9.12,4.22-18.24h7.39l2.16,9.12,2.16,9.07,1.54-9.07,1.63-9.12h7.44l-5.86,26.59h-9.07l-1.92-8.5-1.92-8.59-1.87,8.59-1.92,8.5H5.86L0,11.91Z"/>
        <path class="cls-2" d="M37.44,25.21c0-8.64,5.66-14.02,13.87-14.02,7.73,0,13.54,5.14,13.54,14.35v.58h-19.11c.24,4.95,2.3,7.35,5.62,7.35,2.64,0,4.46-1.58,5.18-5.04h8.06c-1.25,6.77-6.14,10.8-13.34,10.8-8.26,0-13.83-5.33-13.83-14.02ZM46.03,21.85h10.42c-.82-3.36-2.64-5.04-5.18-5.04-2.69,0-4.51,1.68-5.23,5.04Z"/>
        <path class="cls-2" d="M66.96,4.9h8.54v10.75c1.87-2.78,4.75-4.32,8.26-4.32,7.06,0,11.57,5.28,11.57,13.87s-4.61,13.87-11.57,13.87c-3.5,0-6.38-1.54-8.26-4.32v3.74h-8.54V4.9ZM86.88,25.21c0-5.38-2.11-8.06-5.66-8.06s-5.71,2.69-5.71,8.06,2.16,8.11,5.71,8.11,5.66-2.69,5.66-8.11Z"/>
        <path class="cls-2" d="M136.46,25.21c0-8.45,4.61-13.87,11.62-13.87,3.46,0,6.29,1.49,8.21,4.27V4.9h8.54v33.6h-8.54v-3.7c-1.92,2.78-4.75,4.27-8.21,4.27-7.06,0-11.62-5.28-11.62-13.87ZM156.34,25.21c0-5.42-2.21-8.06-5.76-8.06s-5.66,2.64-5.66,8.02,2.16,8.11,5.66,8.11,5.76-2.64,5.76-8.07Z"/>
        <path class="cls-2" d="M167.57,4.09h8.54v5.95h-8.54v-5.95ZM167.57,11.91h8.54v26.59h-8.54V11.91Z"/>
        <path class="cls-2" d="M178.13,31.64c0-5.42,5.62-6.96,11.33-8.59,4.22-1.2,5.95-2.16,5.95-3.79,0-1.44-1.34-2.45-3.79-2.45-2.98,0-4.8,1.68-5.23,4.46h-7.78c.86-5.95,6.1-10.03,13.34-10.03,7.63,0,11.86,3.5,11.86,9.99v17.28h-8.4v-2.69c-1.97,2.06-4.85,3.17-8.21,3.17-5.52,0-9.07-2.93-9.07-7.34ZM189.93,33.75c2.06,0,4.18-.77,5.47-2.11v-3.94l.05-2.21c-1.01.72-2.4,1.15-4.08,1.73-3.02,1.01-4.99,1.87-4.99,3.94,0,1.54,1.3,2.59,3.55,2.59Z"/>
        <path class="cls-2" d="M205.92,24.97c0-8.35,4.61-13.63,11.62-13.63,3.46,0,6.29,1.49,8.21,4.18v-3.6h8.54v24.96c0,7.3-5.28,10.95-13.97,10.95-7.49,0-12.53-2.88-13.68-8.02h8.35c.62,2.06,2.26,3.07,5.33,3.07,3.31,0,5.42-1.54,5.42-4.75v-3.7c-1.92,2.69-4.75,4.13-8.21,4.13-7.06,0-11.62-5.18-11.62-13.58ZM225.79,24.97c0-5.33-2.16-7.87-5.76-7.87s-5.66,2.54-5.66,7.87,2.16,7.87,5.66,7.87,5.76-2.59,5.76-7.87Z"/>
        <path class="cls-2" d="M237.02,11.91h8.54v2.93c1.87-2.16,4.56-3.5,7.82-3.5,5.67,0,9.41,3.5,9.41,8.98v18.19h-8.54v-16.95c0-2.78-1.73-4.22-4.22-4.22-1.87,0-3.46.77-4.46,2.06v19.11h-8.54V11.91Z"/>
        <path class="cls-2" d="M264.86,25.21c0-8.78,5.57-14.02,14.11-14.02s14.06,5.23,14.06,14.02-5.52,14.02-14.06,14.02-14.11-5.23-14.11-14.02ZM284.64,25.21c0-5.42-2.16-8.06-5.66-8.06s-5.66,2.64-5.66,8.06,2.16,8.07,5.66,8.07,5.66-2.64,5.66-8.07Z"/>
        <path class="cls-2" d="M294.48,29.1h7.78c.58,3.12,2.64,4.71,5.57,4.71s4.32-1.06,4.32-2.45c0-2.21-3.22-2.83-6.91-3.6-4.85-1.01-10.51-2.35-10.51-8.11,0-4.9,4.51-8.4,11.76-8.4s12.39,3.5,13.44,9.5h-7.68c-.72-2.93-2.69-4.13-5.62-4.13-2.54,0-3.79,1.01-3.79,2.21,0,2.02,3.22,2.59,6.91,3.36,4.85,1.06,10.51,2.5,10.51,8.35,0,4.85-4.66,8.64-12.29,8.64s-12.48-3.36-13.49-10.08Z"/>
        <path class="cls-2" d="M326.73,31.83v-14.16h-6.29v-5.76h6.29v-5.28h8.45v5.28h7.68v5.76h-7.68v12.63c0,1.63.91,2.35,3.02,2.35h4.66v5.86h-8.98c-4.85,0-7.15-2.35-7.15-6.67Z"/>
        <path class="cls-2" d="M344.83,4.09h8.54v5.95h-8.54v-5.95ZM344.83,11.91h8.54v26.59h-8.54V11.91Z"/>
        <path class="cls-2" d="M355.48,25.21c0-8.83,5.62-14.02,13.92-14.02,7.39,0,12.62,4.22,13.44,11.67h-8.02c-.58-3.84-2.5-5.76-5.38-5.76-3.36,0-5.52,2.69-5.52,8.06s2.16,8.11,5.52,8.11c2.93,0,4.94-2.02,5.42-6.14h8.02c-.67,7.68-5.86,12.1-13.49,12.1-8.35,0-13.92-5.18-13.92-14.02Z"/>
        <path class="cls-2" d="M384.19,29.1h7.78c.58,3.12,2.64,4.71,5.57,4.71s4.32-1.06,4.32-2.45c0-2.21-3.22-2.83-6.91-3.6-4.85-1.01-10.51-2.35-10.51-8.11,0-4.9,4.51-8.4,11.76-8.4s12.39,3.5,13.44,9.5h-7.68c-.72-2.93-2.69-4.13-5.62-4.13-2.54,0-3.79,1.01-3.79,2.21,0,2.02,3.22,2.59,6.91,3.36,4.85,1.06,10.51,2.5,10.51,8.35,0,4.85-4.66,8.64-12.29,8.64s-12.48-3.36-13.49-10.08Z"/>
      </g>
    </g>
  </g>
</svg>